<svg xmlns="http://www.w3.org/2000/svg" width="1200" height="420" viewBox="0 0 1200 420" role="img" aria-labelledby="title desc">
  <title id="title">ChatGPT Personalization</title>
  <desc id="desc">A field-aware workflow for structuring, rendering, linting, and testing ChatGPT personalization profiles.</desc>
  <rect width="1200" height="420" rx="24" fill="#f6f8fa"/>
  <rect x="1" y="1" width="1198" height="418" rx="23" fill="none" stroke="#d0d7de" stroke-width="2"/>

  <g font-family="-apple-system,BlinkMacSystemFont,'Segoe UI',Helvetica,Arial,sans-serif">
    <text x="72" y="92" font-size="18" font-weight="700" letter-spacing="2.8" fill="#0969da">CHATGPT PERSONALIZATION</text>
    <text x="72" y="168" font-size="54" font-weight="700" fill="#24292f">Profiles you can inspect.</text>
    <text x="72" y="216" font-size="25" font-weight="400" fill="#57606a">Structure user context, render clean fields,</text>
    <text x="72" y="251" font-size="25" font-weight="400" fill="#57606a">then lint and test the result.</text>

    <g transform="translate(72 304)">
      <rect width="122" height="42" rx="8" fill="#ffffff" stroke="#d0d7de"/>
      <text x="61" y="27" text-anchor="middle" font-size="15" font-weight="600" fill="#24292f">NO DEPS</text>
      <rect x="136" width="142" height="42" rx="8" fill="#ffffff" stroke="#d0d7de"/>
      <text x="207" y="27" text-anchor="middle" font-size="15" font-weight="600" fill="#24292f">JSON SCHEMA</text>
      <rect x="292" width="126" height="42" rx="8" fill="#ffffff" stroke="#d0d7de"/>
      <text x="355" y="27" text-anchor="middle" font-size="15" font-weight="600" fill="#24292f">TESTABLE</text>
    </g>

    <g transform="translate(760 62)">
      <rect x="0" y="0" width="350" height="72" rx="12" fill="#ffffff" stroke="#d0d7de" stroke-width="2"/>
      <circle cx="34" cy="36" r="8" fill="#0969da"/>
      <text x="58" y="31" font-size="14" font-weight="700" fill="#24292f">PROFILE.JSON</text>
      <text x="58" y="53" font-size="14" fill="#57606a">occupation · about · response</text>

      <path d="M175 80v24" stroke="#8c959f" stroke-width="2" stroke-linecap="round"/>
      <path d="M168 96l7 8 7-8" fill="none" stroke="#8c959f" stroke-width="2" stroke-linecap="round" stroke-linejoin="round"/>

      <rect x="0" y="112" width="350" height="72" rx="12" fill="#ffffff" stroke="#d0d7de" stroke-width="2"/>
      <circle cx="34" cy="148" r="8" fill="#1f883d"/>
      <text x="58" y="143" font-size="14" font-weight="700" fill="#24292f">RENDER</text>
      <text x="58" y="165" font-size="14" fill="#57606a">three copy-ready text fields</text>

      <path d="M175 192v24" stroke="#8c959f" stroke-width="2" stroke-linecap="round"/>
      <path d="M168 208l7 8 7-8" fill="none" stroke="#8c959f" stroke-width="2" stroke-linecap="round" stroke-linejoin="round"/>

      <rect x="0" y="224" width="350" height="72" rx="12" fill="#ffffff" stroke="#d0d7de" stroke-width="2"/>
      <circle cx="34" cy="260" r="8" fill="#9a6700"/>
      <text x="58" y="255" font-size="14" font-weight="700" fill="#24292f">LINT + TEST</text>
      <text x="58" y="277" font-size="14" fill="#57606a">limits · secrets · leakage · behavior</text>
    </g>
  </g>
</svg>
