<svg xmlns="http://www.w3.org/2000/svg" width="1200" height="420" viewBox="0 0 1200 420" role="img" aria-labelledby="title desc">
  <title id="title">ChatGPT Personalization</title>
  <desc id="desc">A field-aware workflow for structuring, rendering, linting, and testing ChatGPT personalization profiles.</desc>
  <rect width="1200" height="420" rx="24" fill="#0d1117"/>
  <rect x="1" y="1" width="1198" height="418" rx="23" fill="none" stroke="#30363d" stroke-width="2"/>

  <g font-family="-apple-system,BlinkMacSystemFont,'Segoe UI',Helvetica,Arial,sans-serif">
    <text x="72" y="92" font-size="18" font-weight="700" letter-spacing="2.8" fill="#58a6ff">CHATGPT PERSONALIZATION</text>
    <text x="72" y="168" font-size="54" font-weight="700" fill="#f0f6fc">Profiles you can inspect.</text>
    <text x="72" y="216" font-size="25" font-weight="400" fill="#8b949e">Structure user context, render clean fields,</text>
    <text x="72" y="251" font-size="25" font-weight="400" fill="#8b949e">then lint and test the result.</text>

    <g transform="translate(72 304)">
      <rect width="122" height="42" rx="8" fill="#161b22" stroke="#30363d"/>
      <text x="61" y="27" text-anchor="middle" font-size="15" font-weight="600" fill="#f0f6fc">NO DEPS</text>
      <rect x="136" width="142" height="42" rx="8" fill="#161b22" stroke="#30363d"/>
      <text x="207" y="27" text-anchor="middle" font-size="15" font-weight="600" fill="#f0f6fc">JSON SCHEMA</text>
      <rect x="292" width="126" height="42" rx="8" fill="#161b22" stroke="#30363d"/>
      <text x="355" y="27" text-anchor="middle" font-size="15" font-weight="600" fill="#f0f6fc">TESTABLE</text>
    </g>

    <g transform="translate(760 60)">
      <rect x="0" y="0" width="350" height="68" rx="12" fill="#161b22" stroke="#30363d" stroke-width="2"/>
      <circle cx="34" cy="34" r="8" fill="#58a6ff"/>
      <text x="58" y="29" font-size="14" font-weight="700" fill="#f0f6fc">PROFILE.JSON</text>
      <text x="58" y="51" font-size="14" fill="#8b949e">occupation · about · response</text>

      <path d="M175 76v26" stroke="#6e7681" stroke-width="2" stroke-linecap="round"/>
      <path d="M168 94l7 8 7-8" fill="none" stroke="#6e7681" stroke-width="2" stroke-linecap="round" stroke-linejoin="round"/>

      <rect x="0" y="116" width="350" height="68" rx="12" fill="#161b22" stroke="#30363d" stroke-width="2"/>
      <circle cx="34" cy="150" r="8" fill="#3fb950"/>
      <text x="58" y="145" font-size="14" font-weight="700" fill="#f0f6fc">RENDER</text>
      <text x="58" y="167" font-size="14" fill="#8b949e">three copy-ready text fields</text>

      <path d="M175 192v26" stroke="#6e7681" stroke-width="2" stroke-linecap="round"/>
      <path d="M168 210l7 8 7-8" fill="none" stroke="#6e7681" stroke-width="2" stroke-linecap="round" stroke-linejoin="round"/>

      <rect x="0" y="232" width="350" height="68" rx="12" fill="#161b22" stroke="#30363d" stroke-width="2"/>
      <circle cx="34" cy="266" r="8" fill="#d29922"/>
      <text x="58" y="261" font-size="14" font-weight="700" fill="#f0f6fc">LINT + TEST</text>
      <text x="58" y="283" font-size="14" fill="#8b949e">limits · secrets · leakage · behavior</text>
    </g>
  </g>
</svg>
